<svg width="100" height="116" viewBox="0 0 100 116" fill="none" xmlns="http://www.w3.org/2000/svg">
<path d="M33.5 8.75V0.5H66.5V8.75H33.5ZM50 115.862C43.2167 115.862 36.8229 114.556 30.8188 111.944C24.8146 109.331 19.5667 105.779 15.075 101.287C10.5833 96.7958 7.03125 91.5479 4.41875 85.5438C1.80625 79.5396 0.5 73.1458 0.5 66.3625C0.5 59.5792 1.80625 53.1854 4.41875 47.1813C7.03125 41.1771 10.5833 35.9292 15.075 31.4375C19.5667 26.9458 24.8146 23.3938 30.8188 20.7812C36.8229 18.1688 43.2167 16.8625 50 16.8625C56.1417 16.8625 61.9167 17.8938 67.325 19.9563C72.7333 22.0188 77.5458 24.8833 81.7625 28.55L88.775 21.5375L94.55 27.3125L87.5375 34.325C90.8375 37.9917 93.6562 42.4375 95.9938 47.6625C98.3313 52.8875 99.5 59.1208 99.5 66.3625C99.5 73.1458 98.1938 79.5396 95.5813 85.5438C92.9688 91.5479 89.4167 96.7958 84.925 101.287C80.4333 105.779 75.1854 109.331 69.1813 111.944C63.1771 114.556 56.7833 115.862 50 115.862ZM50 107.612C61.4583 107.612 71.1979 103.602 79.2188 95.5813C87.2396 87.5604 91.25 77.8208 91.25 66.3625C91.25 54.9042 87.2396 45.1646 79.2188 37.1437C71.1979 29.1229 61.4583 25.1125 50 25.1125C38.5417 25.1125 28.8021 29.1229 20.7812 37.1437C12.7604 45.1646 8.75 54.9042 8.75 66.3625C8.75 77.8208 12.7604 87.5604 20.7812 95.5813C28.8021 103.602 38.5417 107.612 50 107.612Z" fill="white"/>
</svg>
